<svg id="ad259eaa-3261-438b-b6d6-288f4f0787c4" data-name="Layer 1" xmlns="http://www.w3.org/2000/svg" viewBox="0 0 80.99 79.98"><defs><style>.\36 67386bd-be36-4b78-a9f5-d4bfeb26a395{fill:currentColor;}</style></defs><title>dribbble</title><path class="667386bd-be36-4b78-a9f5-d4bfeb26a395" d="M50.49,10a40,40,0,1,0,0,80A40,40,0,1,0,50.49,10ZM76.92,29.26a33.55,33.55,0,0,1,7.31,20.09A62.35,62.35,0,0,0,61,48.24c-0.84-2-1.78-4.07-2.72-6.2A49,49,0,0,0,76.92,29.26ZM50.49,16.67a33.83,33.83,0,0,1,22.12,8.15A43.53,43.53,0,0,1,55.46,36.67,125.13,125.13,0,0,0,42.71,17.6,30.87,30.87,0,0,1,50.49,16.67ZM35.77,20a124.16,124.16,0,0,1,13,18.88c-8.53,2.41-18.84,3.7-31.31,4A33.42,33.42,0,0,1,35.77,20Zm-19,30V49c14-.18,25.4-1.76,35-4.54,0.84,1.76,1.69,3.61,2.44,5.37a16.21,16.21,0,0,0-2,.65c-10.69,3.7-19.68,11-26.81,21.76A33.09,33.09,0,0,1,16.74,50ZM50.49,83.33A33.93,33.93,0,0,1,30,76.48c7.69-11.94,17-18.24,26.53-20.92a139.69,139.69,0,0,1,6.66,25.36A33.44,33.44,0,0,1,50.49,83.33Zm19.12-5.83a143.87,143.87,0,0,0-6.28-23.42,59.51,59.51,0,0,1,20.43,1.39A33.22,33.22,0,0,1,69.61,77.49Z" transform="translate(-9.99 -10.01)"/></svg>
