<svg xmlns="http://www.w3.org/2000/svg" xmlns:xlink="http://www.w3.org/1999/xlink" preserveAspectRatio="xMidYMid" width="100" height="100" viewBox="0 0 100 100">
  <defs>
    <style>
      .cls-1 {
        fill: #0fc;
        fill-rule: evenodd;
      }
    </style>
  </defs>
  <path d="M15.441,38.521 L15.441,84.374 L30.273,84.374 L30.273,38.521 L15.441,38.521 ZM54.006,84.374 L39.173,84.374 L39.173,48.875 C39.173,48.875 38.926,40.083 38.926,38.521 L53.511,38.521 L54.006,44.849 C56.972,40.412 61.422,37.042 67.355,37.042 C77.737,37.042 85.154,44.438 85.154,57.750 L85.154,84.374 L70.321,84.374 L70.321,59.229 C70.321,51.834 66.696,48.875 62.246,48.875 C57.796,48.875 54.006,51.834 54.006,57.750 L54.006,84.374 ZM22.775,31.126 C28.296,31.126 31.757,27.510 31.757,22.991 C31.675,18.389 28.296,14.856 22.940,14.856 C17.501,14.856 13.958,18.389 13.958,22.991 C13.958,27.510 17.419,31.126 22.692,31.126 L22.775,31.126 L22.775,31.126 Z" class="cls-1"/>
</svg>
