<svg id="9773132c-b284-4e40-a70d-df4606e11ad6" data-name="Layer 1" xmlns="http://www.w3.org/2000/svg" viewBox="0 0 71.2 69.52"><defs><style>.f301784a-9a32-4f07-bfd3-4a74cf62dfc0{fill:currentColor;}</style></defs><title>linkedin</title><path class="f301784a-9a32-4f07-bfd3-4a74cf62dfc0" d="M15.44,38.52V84.37H30.27V38.52H15.44ZM54,84.37H39.17V48.88s-0.25-8.79-.25-10.35H53.51L54,44.85C57,40.41,61.42,37,67.36,37c10.38,0,17.8,7.4,17.8,20.71V84.37H70.32V59.23c0-7.4-3.62-10.35-8.08-10.35S54,51.83,54,57.75V84.37ZM22.77,31.13c5.52,0,9-3.62,9-8.14s-3.46-8.13-8.82-8.13S14,18.39,14,23s3.46,8.14,8.73,8.14h0.08Z" transform="translate(-13.96 -14.86)"/></svg>
