<svg id="c582a0b0-96a0-425c-9325-d7ae2276cf91" data-name="Layer 1" xmlns="http://www.w3.org/2000/svg" viewBox="0 0 81.08 101.58"><defs><style>.\39 2f703f3-a1d8-4e29-83d9-29ddb3646f81{fill:#fff;}</style></defs><title>logo</title><path class="92f703f3-a1d8-4e29-83d9-29ddb3646f81" d="M0,40.49H14.72V7.66H0V0H37.58V7.66H22.79V40.49h14.8v7.58H0V40.49Z"/><path class="92f703f3-a1d8-4e29-83d9-29ddb3646f81" d="M69.2,83.58L53,85.45l-3.46,16.13H41.47l10.23-48H70.85l10.23,48H73ZM64.92,61.06H57.67L54.52,78l13.23-1.51Z"/><path class="92f703f3-a1d8-4e29-83d9-29ddb3646f81" d="M16.27,76.31l-3-2.94L12,74.68a2.2,2.2,0,0,1-1.64.69H5.08a2.25,2.25,0,0,1-1.64-.69L0.77,72a2.22,2.22,0,0,1-.65-1.6V58.55A2.25,2.25,0,0,1,.8,56.92l2.68-2.68a2.25,2.25,0,0,1,1.64-.69h7.13a2.25,2.25,0,0,1,1.64.69l2.68,2.68a2.25,2.25,0,0,1,.69,1.64V68.4A2.3,2.3,0,0,1,16.6,70l-1.31,1.31,3,3Zm-5.72-5.59L8,68.2l2-2,2.55,2.49,0.78-.78a0.57,0.57,0,0,0,.2-0.46V59.53a0.57,0.57,0,0,0-.2-0.46l-1.6-1.67a0.57,0.57,0,0,0-.46-0.2H6a0.57,0.57,0,0,0-.46.2L4,59.08a0.57,0.57,0,0,0-.2.46v9.85a0.65,0.65,0,0,0,.2.46l1.67,1.67a0.51,0.51,0,0,0,.39.2H9.37a0.46,0.46,0,0,0,.39-0.2Z"/><path class="92f703f3-a1d8-4e29-83d9-29ddb3646f81" d="M24.66,74.68L22,71.93a2.4,2.4,0,0,1-.65-1.6V53.55H25v15.8a0.65,0.65,0,0,0,.2.46l1.64,1.7a0.65,0.65,0,0,0,.46.2h4.22a0.65,0.65,0,0,0,.46-0.2l1.73-1.7a0.65,0.65,0,0,0,.2-0.46V53.55h3.66V70.36A2.25,2.25,0,0,1,36.89,72l-2.71,2.71a2.22,2.22,0,0,1-1.6.65H26.29A2.25,2.25,0,0,1,24.66,74.68Z"/><path class="92f703f3-a1d8-4e29-83d9-29ddb3646f81" d="M12.8,93.4l-7.36.85-1.57,7.33H0.21L4.86,79.76h8.7l4.64,21.82H14.54Zm-2.13-10H7.73L6.2,90.65,12.08,90Z"/><path class="92f703f3-a1d8-4e29-83d9-29ddb3646f81" d="M37.23,79.76v21.82H33.57V95.49L25.36,85.22v16.35H21.7V79.76h3.66l8.21,10.37V79.76h3.66Z"/><polygon class="92f703f3-a1d8-4e29-83d9-29ddb3646f81" points="55.15 26.03 51.15 30.03 51.22 48.03 43.15 48.03 43.15 0 51.22 0 51.15 20.03 69.51 0 79.3 0 60.44 20.71 79.4 48.03 70.15 48.03 55.15 26.03"/></svg>