<svg id="ab30c083-98c9-4769-b728-a9f1ebce81ba" data-name="Layer 1" xmlns="http://www.w3.org/2000/svg" viewBox="0 0 82.02 82.01"><defs><style>.\36 b33e4cf-755c-481a-889e-48a1a7f08c12{fill:currentColor;}</style></defs><title>pinterest</title><path class="6b33e4cf-755c-481a-889e-48a1a7f08c12" d="M91,50A41,41,0,1,0,33.57,87.6a31.82,31.82,0,0,1,.66-9.4c0.76-3.42,5.32-22.4,5.32-22.4a15.19,15.19,0,0,1-1.33-6.45c0-6.08,3.51-10.63,7.88-10.63,3.7,0,5.51,2.75,5.51,6.17,0,3.7-2.37,9.3-3.61,14.52-1,4.37,2.18,7.88,6.45,7.88,7.78,0,13-10,13-21.74,0-9-6-15.76-17-15.76-12.44,0-20.22,9.3-20.22,19.65a12.09,12.09,0,0,0,2.66,8.07,2,2,0,0,1,.67,2.28c-0.19.76-.67,2.56-0.85,3.23a1.45,1.45,0,0,1-2.09,1c-5.7-2.28-8.35-8.54-8.35-15.66,0-11.67,9.78-25.63,29.33-25.63,15.57,0,25.92,11.39,25.92,23.54,0,16-8.92,28.1-22.12,28.1-4.46,0-8.64-2.37-10.06-5.13,0,0-2.37,9.49-2.85,11.3a32.33,32.33,0,0,1-4.18,8.73A39.5,39.5,0,0,0,50,91,41,41,0,0,0,91,50Z" transform="translate(-8.99 -9)"/></svg>
