<svg id="9476f1a5-e37c-47a9-8c6e-3953fb770189" data-name="Layer 1" xmlns="http://www.w3.org/2000/svg" viewBox="0 0 81.99 67"><defs><style>.f2c35083-60a6-4216-96f2-afb686b98866{fill:currentColor;}</style></defs><title>twitter</title><path class="f2c35083-60a6-4216-96f2-afb686b98866" d="M91,23.93a33.11,33.11,0,0,1-9.68,2.67,16.84,16.84,0,0,0,7.4-9.35,34.23,34.23,0,0,1-10.63,4.1A17.16,17.16,0,0,0,65.76,16,16.82,16.82,0,0,0,49,32.9a17.64,17.64,0,0,0,.38,3.91A47.73,47.73,0,0,1,14.71,19.44a15.89,15.89,0,0,0-2.28,8.21,16.85,16.85,0,0,0,7.5,14,17,17,0,0,1-7.59-2.1v0.19A16.89,16.89,0,0,0,25.81,56.38a17.52,17.52,0,0,1-7.59.29A16.77,16.77,0,0,0,33.88,68.4c-5.69,4.58-13,8-20.88,8a28,28,0,0,1-4-.29C16.42,80.91,25.34,83,34.83,83c30.94,0,47.83-25.77,47.83-48.1V32.71A34.94,34.94,0,0,0,91,23.93Z" transform="translate(-9.01 -16.01)"/></svg>
